<?xml version="1.0" encoding="UTF-8" standalone="no"?>
<!-- Created with Inkscape (http://www.inkscape.org/) -->

<svg
   xmlns:dc="http://purl.org/dc/elements/1.1/"
   xmlns:cc="http://creativecommons.org/ns#"
   xmlns:rdf="http://www.w3.org/1999/02/22-rdf-syntax-ns#"
   xmlns:svg="http://www.w3.org/2000/svg"
   xmlns="http://www.w3.org/2000/svg"
   xmlns:sodipodi="http://sodipodi.sourceforge.net/DTD/sodipodi-0.dtd"
   xmlns:inkscape="http://www.inkscape.org/namespaces/inkscape"
   width="112.79683mm"
   height="317.82809mm"
   viewBox="0 0 399.6738 1126.1625"
   id="svg3559"
   version="1.1"
   inkscape:version="0.91 r13725"
   sodipodi:docname="1997.svg">
  <defs
     id="defs3561" />
  <sodipodi:namedview
     id="base"
     pagecolor="#ffffff"
     bordercolor="#666666"
     borderopacity="1"
     inkscape:pageopacity="0.0"
     inkscape:pageshadow="2"
     inkscape:zoom="0.7"
     inkscape:cx="185.13917"
     inkscape:cy="546.87899"
     inkscape:document-units="px"
     inkscape:current-layer="flowRoot3567"
     showgrid="false"
     fit-margin-top="0"
     fit-margin-left="0"
     fit-margin-right="0"
     fit-margin-bottom="0"
     inkscape:window-width="1600"
     inkscape:window-height="836"
     inkscape:window-x="0"
     inkscape:window-y="24"
     inkscape:window-maximized="1" />
  <metadata
     id="metadata3564">
    <rdf:RDF>
      <cc:Work
         rdf:about="">
        <dc:format>image/svg+xml</dc:format>
        <dc:type
           rdf:resource="http://purl.org/dc/dcmitype/StillImage" />
        <dc:title></dc:title>
      </cc:Work>
    </rdf:RDF>
  </metadata>
  <g
     inkscape:label="Calque 1"
     inkscape:groupmode="layer"
     id="layer1"
     transform="translate(-59.589614,512.01919)">
    <g
       transform="matrix(0,-7.1078681,7.9412556,0,-23.395949,670.3909)"
       style="font-style:normal;font-weight:normal;font-size:40px;line-height:125%;font-family:sans-serif;letter-spacing:0px;word-spacing:0px;fill:#ff6600;fill-opacity:1;stroke:none;stroke-width:1px;stroke-linecap:butt;stroke-linejoin:miter;stroke-opacity:1"
       id="flowRoot3567">
      <g
         transform="matrix(1.684456,0.00449308,-0.00552706,1.660008,934.62986,-113.1705)"
         style="font-style:normal;font-weight:normal;font-size:40px;line-height:125%;font-family:sans-serif;letter-spacing:0px;word-spacing:0px;fill:#ff6600;fill-opacity:1;stroke:none;stroke-width:1px;stroke-linecap:butt;stroke-linejoin:miter;stroke-opacity:1"
         id="flowRoot3724">
        <path
           d="m -549.32422,102.2352 6.44531,0 0,-22.246093 -7.01171,1.40625 0,-3.59375 6.97265,-1.40625 3.94531,0 0,25.839843 6.44532,0 0,3.32031 -16.79688,0 0,-3.32031 z"
           id="path3603"
           inkscape:connector-curvature="0" />
        <path
           d="m -524.42187,104.95004 0,-3.59375 q 1.48437,0.70313 3.00781,1.07422 1.52344,0.3711 2.98828,0.3711 3.90625,0 5.95703,-2.61719 2.07031,-2.636719 2.36328,-7.988282 -1.13281,1.679688 -2.87109,2.578125 -1.73828,0.898438 -3.84766,0.898438 -4.375,0 -6.93359,-2.636719 -2.53906,-2.65625 -2.53906,-7.246094 0,-4.492187 2.65625,-7.207031 2.65625,-2.714844 7.07031,-2.714844 5.05859,0 7.71484,3.886719 2.67578,3.867188 2.67578,11.25 0,6.894531 -3.28125,11.015628 -3.26172,4.10156 -8.78906,4.10156 -1.48437,0 -3.00781,-0.29297 -1.52344,-0.29297 -3.16406,-0.87891 z m 7.85156,-12.363277 q 2.65625,0 4.19922,-1.816406 1.5625,-1.816406 1.5625,-4.980469 0,-3.144531 -1.5625,-4.960937 -1.54297,-1.835938 -4.19922,-1.835938 -2.65625,0 -4.21875,1.835938 -1.54297,1.816406 -1.54297,4.960937 0,3.164063 1.54297,4.980469 1.5625,1.816406 4.21875,1.816406 z"
           id="path3605"
           inkscape:connector-curvature="0" />
        <path
           d="m -498.95312,104.95004 0,-3.59375 q 1.48437,0.70313 3.00781,1.07422 1.52344,0.3711 2.98828,0.3711 3.90625,0 5.95703,-2.61719 2.07031,-2.636719 2.36328,-7.988282 -1.13281,1.679688 -2.87109,2.578125 -1.73828,0.898438 -3.84766,0.898438 -4.375,0 -6.93359,-2.636719 -2.53906,-2.65625 -2.53906,-7.246094 0,-4.492187 2.65625,-7.207031 2.65625,-2.714844 7.07031,-2.714844 5.05859,0 7.71484,3.886719 2.67578,3.867188 2.67578,11.25 0,6.894531 -3.28125,11.015628 -3.26172,4.10156 -8.78906,4.10156 -1.48437,0 -3.00781,-0.29297 -1.52344,-0.29297 -3.16406,-0.87891 z m 7.85156,-12.363277 q 2.65625,0 4.19922,-1.816406 1.5625,-1.816406 1.5625,-4.980469 0,-3.144531 -1.5625,-4.960937 -1.54297,-1.835938 -4.19922,-1.835938 -2.65625,0 -4.21875,1.835938 -1.54297,1.816406 -1.54297,4.960937 0,3.164063 1.54297,4.980469 1.5625,1.816406 4.21875,1.816406 z"
           id="path3607"
           inkscape:connector-curvature="0" />
        <path
           d="m -474.59766,76.395357 18.75,0 0,1.679688 -10.58593,27.480465 -4.1211,0 9.96094,-25.83984 -14.00391,0 0,-3.320313 z"
           id="path3609"
           inkscape:connector-curvature="0" />
      </g>
    </g>
  </g>
</svg>
