<?xml version="1.0" encoding="UTF-8" standalone="no"?>
<!-- Created with Inkscape (http://www.inkscape.org/) -->

<svg
   xmlns:dc="http://purl.org/dc/elements/1.1/"
   xmlns:cc="http://creativecommons.org/ns#"
   xmlns:rdf="http://www.w3.org/1999/02/22-rdf-syntax-ns#"
   xmlns:svg="http://www.w3.org/2000/svg"
   xmlns="http://www.w3.org/2000/svg"
   xmlns:sodipodi="http://sodipodi.sourceforge.net/DTD/sodipodi-0.dtd"
   xmlns:inkscape="http://www.inkscape.org/namespaces/inkscape"
   width="112.74955mm"
   height="325.01331mm"
   viewBox="0 0 399.50628 1151.622"
   id="svg3559"
   version="1.1"
   inkscape:version="0.91 r13725"
   sodipodi:docname="2008.svg">
  <defs
     id="defs3561" />
  <sodipodi:namedview
     id="base"
     pagecolor="#ffffff"
     bordercolor="#666666"
     borderopacity="0.96862745"
     inkscape:pageopacity="0.0"
     inkscape:pageshadow="2"
     inkscape:zoom="0.7"
     inkscape:cx="169.10048"
     inkscape:cy="559.95465"
     inkscape:document-units="px"
     inkscape:current-layer="flowRoot3567"
     showgrid="false"
     fit-margin-top="0"
     fit-margin-left="0"
     fit-margin-right="0"
     fit-margin-bottom="0"
     inkscape:window-width="1600"
     inkscape:window-height="836"
     inkscape:window-x="0"
     inkscape:window-y="24"
     inkscape:window-maximized="1" />
  <metadata
     id="metadata3564">
    <rdf:RDF>
      <cc:Work
         rdf:about="">
        <dc:format>image/svg+xml</dc:format>
        <dc:type
           rdf:resource="http://purl.org/dc/dcmitype/StillImage" />
        <dc:title></dc:title>
      </cc:Work>
    </rdf:RDF>
  </metadata>
  <g
     inkscape:label="Calque 1"
     inkscape:groupmode="layer"
     id="layer1"
     transform="translate(-54.89205,524.40295)">
    <g
       transform="matrix(0,-7.1078681,7.9412556,0,-23.395949,670.3909)"
       style="font-style:normal;font-weight:normal;font-size:40px;line-height:125%;font-family:sans-serif;letter-spacing:0px;word-spacing:0px;fill:#ff6600;fill-opacity:1;stroke:none;stroke-width:1px;stroke-linecap:butt;stroke-linejoin:miter;stroke-opacity:1"
       id="flowRoot3567">
      <g
         transform="matrix(1.6844625,-0.00168349,0.0020709,1.6600143,934.59971,-116.86668)"
         style="font-style:normal;font-weight:normal;font-size:40px;line-height:125%;font-family:sans-serif;letter-spacing:0px;word-spacing:0px;fill:#ff6600;fill-opacity:1;stroke:none;stroke-width:1px;stroke-linecap:butt;stroke-linejoin:miter;stroke-opacity:1"
         id="flowRoot3724">
        <path
           d="m -546.60937,102.2352 13.76953,0 0,3.32031 -18.51563,0 0,-3.32031 q 2.2461,-2.324218 6.11328,-6.230468 3.88672,-3.925781 4.88282,-5.058594 1.89453,-2.128906 2.63671,-3.59375 0.76172,-1.484375 0.76172,-2.910156 0,-2.324219 -1.64062,-3.789062 -1.6211,-1.464844 -4.23828,-1.464844 -1.85547,0 -3.92578,0.644531 -2.05079,0.644531 -4.39454,1.953125 l 0,-3.984375 q 2.38282,-0.957031 4.45313,-1.445312 2.07031,-0.488282 3.78906,-0.488282 4.53125,0 7.22656,2.265625 2.69532,2.265625 2.69532,6.054688 0,1.796875 -0.6836,3.417969 -0.66406,1.601562 -2.4414,3.789062 -0.48828,0.566406 -3.10547,3.28125 -2.61719,2.695313 -7.38281,7.558593 z"
           id="path3829"
           inkscape:connector-curvature="0" />
        <path
           d="m -516.10156,78.993013 q -3.04688,0 -4.58985,3.007813 -1.52343,2.988281 -1.52343,9.003906 0,5.996094 1.52343,9.003908 1.54297,2.98828 4.58985,2.98828 3.0664,0 4.58984,-2.98828 1.54297,-3.007814 1.54297,-9.003908 0,-6.015625 -1.54297,-9.003906 -1.52344,-3.007813 -4.58984,-3.007813 z m 0,-3.125 q 4.90234,0 7.48047,3.886719 2.59765,3.867188 2.59765,11.25 0,7.363281 -2.59765,11.249998 -2.57813,3.86719 -7.48047,3.86719 -4.90235,0 -7.5,-3.86719 -2.57813,-3.886717 -2.57813,-11.249998 0,-7.382812 2.57813,-11.25 2.59765,-3.886719 7.5,-3.886719 z"
           id="path3831"
           inkscape:connector-curvature="0" />
        <path
           d="m -490.63281,78.993013 q -3.04688,0 -4.58985,3.007813 -1.52343,2.988281 -1.52343,9.003906 0,5.996094 1.52343,9.003908 1.54297,2.98828 4.58985,2.98828 3.0664,0 4.58984,-2.98828 1.54297,-3.007814 1.54297,-9.003908 0,-6.015625 -1.54297,-9.003906 -1.52344,-3.007813 -4.58984,-3.007813 z m 0,-3.125 q 4.90234,0 7.48047,3.886719 2.59765,3.867188 2.59765,11.25 0,7.363281 -2.59765,11.249998 -2.57813,3.86719 -7.48047,3.86719 -4.90235,0 -7.5,-3.86719 -2.57813,-3.886717 -2.57813,-11.249998 0,-7.382812 2.57813,-11.25 2.59765,-3.886719 7.5,-3.886719 z"
           id="path3833"
           inkscape:connector-curvature="0" />
        <path
           d="m -465.16406,91.707857 q -2.8125,0 -4.4336,1.503906 -1.60156,1.503907 -1.60156,4.140625 0,2.636719 1.60156,4.140622 1.6211,1.50391 4.4336,1.50391 2.8125,0 4.43359,-1.50391 1.6211,-1.523434 1.6211,-4.140622 0,-2.636718 -1.6211,-4.140625 -1.60156,-1.503906 -4.43359,-1.503906 z m -3.94531,-1.679687 q -2.53907,-0.625 -3.96485,-2.363282 -1.40625,-1.738281 -1.40625,-4.238281 0,-3.496094 2.48047,-5.527344 2.5,-2.03125 6.83594,-2.03125 4.35547,0 6.83594,2.03125 2.48046,2.03125 2.48046,5.527344 0,2.5 -1.42578,4.238281 -1.40625,1.738282 -3.92578,2.363282 2.85156,0.664062 4.4336,2.597656 1.60156,1.933594 1.60156,4.726562 0,4.238282 -2.59766,6.503902 -2.57812,2.26563 -7.40234,2.26563 -4.82422,0 -7.42188,-2.26563 -2.57812,-2.26562 -2.57812,-6.503902 0,-2.792968 1.60156,-4.726562 1.60156,-1.933594 4.45313,-2.597656 z m -1.44532,-6.230469 q 0,2.265625 1.40625,3.535156 1.42578,1.269531 3.98438,1.269531 2.53906,0 3.96484,-1.269531 1.44531,-1.269531 1.44531,-3.535156 0,-2.265625 -1.44531,-3.535156 -1.42578,-1.269532 -3.96484,-1.269532 -2.5586,0 -3.98438,1.269532 -1.40625,1.269531 -1.40625,3.535156 z"
           id="path3835"
           inkscape:connector-curvature="0" />
      </g>
    </g>
  </g>
</svg>
