<?xml version="1.0" encoding="UTF-8" standalone="no"?>
<!-- Created with Inkscape (http://www.inkscape.org/) -->

<svg
   xmlns:dc="http://purl.org/dc/elements/1.1/"
   xmlns:cc="http://creativecommons.org/ns#"
   xmlns:rdf="http://www.w3.org/1999/02/22-rdf-syntax-ns#"
   xmlns:svg="http://www.w3.org/2000/svg"
   xmlns="http://www.w3.org/2000/svg"
   xmlns:sodipodi="http://sodipodi.sourceforge.net/DTD/sodipodi-0.dtd"
   xmlns:inkscape="http://www.inkscape.org/namespaces/inkscape"
   width="113.42303mm"
   height="323.34805mm"
   viewBox="0 0 401.89264 1145.7214"
   id="svg3559"
   version="1.1"
   inkscape:version="0.91 r13725"
   sodipodi:docname="2013.svg">
  <defs
     id="defs3561" />
  <sodipodi:namedview
     id="base"
     pagecolor="#ffffff"
     bordercolor="#666666"
     borderopacity="1"
     inkscape:pageopacity="0.0"
     inkscape:pageshadow="2"
     inkscape:zoom="0.7"
     inkscape:cx="173.69285"
     inkscape:cy="570.49892"
     inkscape:document-units="px"
     inkscape:current-layer="flowRoot3567"
     showgrid="false"
     fit-margin-top="0"
     fit-margin-left="0"
     fit-margin-right="0"
     fit-margin-bottom="0"
     inkscape:window-width="1600"
     inkscape:window-height="836"
     inkscape:window-x="0"
     inkscape:window-y="24"
     inkscape:window-maximized="1" />
  <metadata
     id="metadata3564">
    <rdf:RDF>
      <cc:Work
         rdf:about="">
        <dc:format>image/svg+xml</dc:format>
        <dc:type
           rdf:resource="http://purl.org/dc/dcmitype/StillImage" />
        <dc:title></dc:title>
      </cc:Work>
    </rdf:RDF>
  </metadata>
  <g
     inkscape:label="Calque 1"
     inkscape:groupmode="layer"
     id="layer1"
     transform="translate(-50.299681,521.90913)">
    <g
       transform="matrix(0,-7.1078681,7.9412556,0,-23.395949,670.3909)"
       style="font-style:normal;font-weight:normal;font-size:40px;line-height:125%;font-family:sans-serif;letter-spacing:0px;word-spacing:0px;fill:#ff6600;fill-opacity:1;stroke:none;stroke-width:1px;stroke-linecap:butt;stroke-linejoin:miter;stroke-opacity:1"
       id="flowRoot3567">
      <g
         transform="matrix(1.6844414,-0.00771762,0.00949366,1.6599936,934.30849,-120.25671)"
         style="font-style:normal;font-weight:normal;font-size:40px;line-height:125%;font-family:sans-serif;letter-spacing:0px;word-spacing:0px;fill:#ff6600;fill-opacity:1;stroke:none;stroke-width:1px;stroke-linecap:butt;stroke-linejoin:miter;stroke-opacity:1"
         id="flowRoot3724">
        <path
           d="m -546.60937,102.2352 13.76953,0 0,3.32031 -18.51563,0 0,-3.32031 q 2.2461,-2.324218 6.11328,-6.230468 3.88672,-3.925781 4.88282,-5.058594 1.89453,-2.128906 2.63671,-3.59375 0.76172,-1.484375 0.76172,-2.910156 0,-2.324219 -1.64062,-3.789062 -1.6211,-1.464844 -4.23828,-1.464844 -1.85547,0 -3.92578,0.644531 -2.05079,0.644531 -4.39454,1.953125 l 0,-3.984375 q 2.38282,-0.957031 4.45313,-1.445312 2.07031,-0.488282 3.78906,-0.488282 4.53125,0 7.22656,2.265625 2.69532,2.265625 2.69532,6.054688 0,1.796875 -0.6836,3.417969 -0.66406,1.601562 -2.4414,3.789062 -0.48828,0.566406 -3.10547,3.28125 -2.61719,2.695313 -7.38281,7.558593 z"
           id="path3395"
           inkscape:connector-curvature="0" />
        <path
           d="m -516.10156,78.993013 q -3.04688,0 -4.58985,3.007813 -1.52343,2.988281 -1.52343,9.003906 0,5.996094 1.52343,9.003908 1.54297,2.98828 4.58985,2.98828 3.0664,0 4.58984,-2.98828 1.54297,-3.007814 1.54297,-9.003908 0,-6.015625 -1.54297,-9.003906 -1.52344,-3.007813 -4.58984,-3.007813 z m 0,-3.125 q 4.90234,0 7.48047,3.886719 2.59765,3.867188 2.59765,11.25 0,7.363281 -2.59765,11.249998 -2.57813,3.86719 -7.48047,3.86719 -4.90235,0 -7.5,-3.86719 -2.57813,-3.886717 -2.57813,-11.249998 0,-7.382812 2.57813,-11.25 2.59765,-3.886719 7.5,-3.886719 z"
           id="path3397"
           inkscape:connector-curvature="0" />
        <path
           d="m -498.38672,102.2352 6.44531,0 0,-22.246093 -7.01171,1.40625 0,-3.59375 6.97265,-1.40625 3.94531,0 0,25.839843 6.44532,0 0,3.32031 -16.79688,0 0,-3.32031 z"
           id="path3399"
           inkscape:connector-curvature="0" />
        <path
           d="m -461.64844,89.832857 q 2.83203,0.605469 4.41407,2.519531 1.60156,1.914063 1.60156,4.726563 0,4.316409 -2.96875,6.679689 -2.96875,2.36328 -8.4375,2.36328 -1.83594,0 -3.78906,-0.37109 -1.9336,-0.35157 -4.00391,-1.07422 l 0,-3.8086 q 1.64062,0.95703 3.59375,1.44532 1.95312,0.48828 4.08203,0.48828 3.71094,0 5.64453,-1.46485 1.95313,-1.46484 1.95313,-4.257809 0,-2.578125 -1.81641,-4.023438 -1.79687,-1.464843 -5.01953,-1.464843 l -3.39844,0 0,-3.242188 3.55469,0 q 2.91016,0 4.45312,-1.152344 1.54297,-1.171875 1.54297,-3.359375 0,-2.246093 -1.60156,-3.4375 -1.58203,-1.210937 -4.55078,-1.210937 -1.62109,0 -3.47656,0.351562 -1.85547,0.351563 -4.08203,1.09375 l 0,-3.515625 q 2.24609,-0.625 4.19921,-0.9375 1.97266,-0.3125 3.71094,-0.3125 4.49219,0 7.10938,2.050782 2.61718,2.03125 2.61718,5.507812 0,2.421875 -1.38671,4.101563 -1.38672,1.660156 -3.94532,2.304687 z"
           id="path3401"
           inkscape:connector-curvature="0" />
      </g>
    </g>
  </g>
</svg>
